PathFileType	4	(X/Y/Z)	pose_F01_0-90.trc
DataRate	CameraRate	NumFrames	NumMarkers	Units	OrigDataRate	OrigDataStartFrame	OrigNumFrames
30	30	7	21	m	30	67	90
Frame#	Time	CHip			RHip			RKnee			RAnkle			RBigToe			RSmallToe			RHeel			LHip			LKnee			LAnkle			LBigToe			LSmallToe			LHeel			Neck			Nose			RShoulder			RElbow			RWrist			LShoulder			LElbow			LWrist			
		X1	Y1	Z1	X2	Y2	Z2	X3	Y3	Z3	X4	Y4	Z4	X5	Y5	Z5	X6	Y6	Z6	X7	Y7	Z7	X8	Y8	Z8	X9	Y9	Z9	X10	Y10	Z10	X11	Y11	Z11	X12	Y12	Z12	X13	Y13	Z13	X14	Y14	Z14	X15	Y15	Z15	X16	Y16	Z16	X17	Y17	Z17	X18	Y18	Z18	X19	Y19	Z19	X20	Y20	Z20	X21	Y21	Z21	
67	2.2333333333333334	-0.22497972492813045	1.8816550611052676	-0.568830731832972	-0.23810496202564885	1.8820918824925872	-0.5030672548612968	-0.26111457284745543	1.7313002537950344	-0.4361348610349567	-0.24045268730936284	1.6265423581327303	-0.3110407952893231	-0.25971542425796035	1.5895219243307244	-0.2806357299020028	-0.25887322229915255	1.6006684810485294	-0.25855841219636067	-0.23058118653652981	1.6253741036274811	-0.30802274397656937	-0.20726291227010377	1.8835389745870645	-0.6424516855568534	-0.20970437187849034	1.7220971865709414	-0.6350284193855118	-0.19412605942443997	1.5683570133409868	-0.6253530831144266	-0.21408734966920068	1.522316016867508	-0.6428043384571509	-0.20053498377683093	1.5322287350472985	-0.6739723117452694	-0.18716749465851684	1.5585463633051968	-0.6102569593910389	-0.20804912672402337	2.05837943182462	-0.6203686009979954	-0.22832076657712613	2.126332866554768	-0.6303490161631298	-0.22728832999675253	2.060404609931169	-0.5310912624107709	-0.2691124916482616	2.0372955654563523	-0.3994711033041662	-0.25203947460416787	2.093866762200979	-0.4829951166976877	-0.18434637971378526	2.0555879583702166	-0.7124356730996033	-0.21743111454949757	2.002542297829867	-0.728557455404302	-0.21859704904863625	2.0635676693650034	-0.7192248373383299
68	2.2666666666666666	-0.21609645873476027	1.8848800556775394	-0.5956325764644647	-0.2326324659275407	1.8840706981325466	-0.5221569734836576	-0.2680229187481627	1.726001431127126	-0.46412319543070296	-0.23888109006006059	1.682322624969834	-0.37588249016525604	-0.25023601419168967	1.625271325176408	-0.3208304139835321	-0.2547705940325904	1.6395515823264262	-0.29905538608204296	-0.22801787567938914	1.6879751062594635	-0.3749533498169683	-0.2004096712518297	1.885497713924186	-0.6583835623822172	-0.20966012080482396	1.7242541010216688	-0.6438683486856653	-0.1939068913877838	1.5668234274061996	-0.6255246703338588	-0.2143967164061655	1.5209780878536825	-0.6421775580626539	-0.20084267292916677	1.5310424134685607	-0.6733061200601086	-0.18695200306007692	1.557091977688304	-0.6105023606134449	-0.20348322025246451	2.057315969191062	-0.6325861069017634	-0.2248552179025799	2.121692226556346	-0.6451611488937643	-0.2229907438769993	2.059460545254318	-0.5433513386560583	-0.2681353432342205	2.01655614536534	-0.4059544297510315	-0.25015921496523386	2.0858651978734075	-0.48221894762647877	-0.17686939505404634	2.0595670364302023	-0.7272470388446463	-0.20344945554514027	2.0056899200846985	-0.7513045536075835	-0.20022988369996775	2.0771341440527777	-0.7636525309285219
69	2.3	-0.21402006412168054	1.8828254620656855	-0.6064183186856822	-0.2317581833510748	1.8819713482053888	-0.5359501810833698	-0.2704964364895859	1.7169579288194485	-0.5052545577468586	-0.23809269009407072	1.7364354689210193	-0.412540165714549	-0.25023601419168967	1.625271325176408	-0.3208304139835321	-0.23463812541375667	1.7067218363258545	-0.34713868654003877	-0.22950016453705108	1.7541189226094709	-0.4155550145549474	-0.19544181491946847	1.8823963176565552	-0.6796697883207569	-0.20866562953852133	1.7154557566006423	-0.6525145225475616	-0.19357974399305206	1.5680534145051253	-0.6261923104364719	-0.21194222467268467	1.5224100970395493	-0.6448918249417367	-0.19991811399556741	1.5311176920763157	-0.670206389961135	-0.1866052769193096	1.5610883945534537	-0.611402495338148	-0.19500732004998722	2.0522516520901504	-0.6404578097435301	-0.21951931140360562	2.1192823676980725	-0.6544816690366342	-0.2181172824208935	2.051752553639999	-0.5426069618864849	-0.25447109293224207	1.9808885864133003	-0.4281926667995664	-0.25928655925253996	2.040021733847455	-0.45374009607522764	-0.16890953859308136	2.053557045539626	-0.7385677660414692	-1.2197945556926797	1.8886858121292887	0.28847953272913757	-0.19418789176130868	2.047821315445229	-0.7779036488791334
70	2.3333333333333335	-0.21304218134069314	1.876453836962605	-0.6111479060886257	-0.2299078258526862	1.8756469154695694	-0.545857335242745	-0.2676397905207709	1.717948616911004	-0.5262434434474903	-0.2328173310302412	1.7253869016519905	-0.4137720912207062	-0.25023601419168967	1.625271325176408	-0.3208304139835321	-0.23463812541375667	1.7067218363258545	-0.34713868654003877	-0.23125875868557422	1.7249533931154544	-0.4133439097910936	-0.19234757126535976	1.8774988731884297	-0.6868861069817814	-0.20663003027662002	1.710981167468735	-0.6582998158169541	-0.19149674855212764	1.5681855882018636	-0.6283484744621997	-0.2132503234727694	1.5209334045029868	-0.6476632746976541	-0.1996443956424001	1.5292933131737978	-0.6704375796305387	-0.18687574856509	1.5598813265890543	-0.6108974072786972	-0.19816343273676465	2.0497954930204854	-0.6414677966405993	-0.21607315323935433	2.119671154380552	-0.6618599868067301	-0.2203096289375425	2.0479799718552387	-0.5402092600705091	-0.23519919213097637	1.9567869029997313	-0.45301332321483007	-0.26841390353984607	1.994178269821503	-0.4252612445239765	-0.17214455867930548	2.0504405762487075	-0.739786496317083	-0.16695661367176626	1.9648750596260494	-0.7759910019790339	-0.18814589982264962	2.0185084868376797	-0.792154766829745
71	2.3666666666666667	-0.2101512621548738	1.8796486243332218	-0.619512379019158	-0.22717935939596565	1.8790237851961669	-0.5543378590366652	-0.2652568906744974	1.716372707590504	-0.5328888844281062	-0.22754197196641168	1.7143383343829617	-0.41500401672686343	-0.25023601419168967	1.625271325176408	-0.3208304139835321	-0.23463812541375667	1.7067218363258545	-0.34713868654003877	-0.23301735283409733	1.695787863621438	-0.4111328050272398	-0.19131050061953575	1.8804609571208037	-0.6928886443021423	-0.20326060296549756	1.71280291850599	-0.6659558245301985	-0.19174175142939082	1.569681490499628	-0.6281070745710857	-0.21322908688232556	1.520964328331335	-0.6476121938886167	-0.19978239485573188	1.5305020803444491	-0.6702530169435285	-0.18710906393802437	1.5613591334833279	-0.6105854350074637	-0.19335916692230645	2.050282926224711	-0.6441178591501189	-0.21403084920337728	2.1213294815594845	-0.665355211578998	-0.21835859687329007	2.048201536953777	-0.5429962773418844	-0.220589202633987	1.9598417999730244	-0.46520022007506356	-0.2601416417910017	1.9895796380415562	-0.438963778510458	-0.16782110318087767	2.051898010725904	-0.7453080464841533	-0.16487084586596457	1.9702437936775519	-0.8004582862933902	-0.18534816433732565	2.0232078966415084	-0.8033345044568861
72	2.4	-0.20752871338771103	1.8890929413872821	-0.6317983445262675	-0.22586593403921318	1.888215462109634	-0.5614931269523242	-0.2568107607093463	1.7243870518181355	-0.533956626225863	-0.22226661290258215	1.7032897671139329	-0.41623594223302063	-0.25023601419168967	1.625271325176408	-0.3208304139835321	-0.23463812541375667	1.7067218363258545	-0.34713868654003877	-0.23477594698262047	1.6666223341274216	-0.408921700263386	-0.1888477557756532	1.8885245666217985	-0.6965569584987454	-0.19955928668601888	1.7196724129954692	-0.6623602666343915	-0.19144438062483252	1.5682792184396135	-0.6284861639098305	-0.21407261179513834	1.5222624319795555	-0.6427596430166747	-0.20075166155713062	1.5309315543157438	-0.673370145027559	-0.18729672098608854	1.559786437566923	-0.6149889271478473	-0.19401604832412545	2.0567439667924075	-0.6485118753195559	-0.2151128294932104	2.12598989928648	-0.6610605437622851	-0.21728026420472699	2.0550714331898132	-0.550508555365138	-0.23062486548178307	1.9932846604477574	-0.43858691956128254	-0.2563413387801562	2.0306690903978653	-0.4356135858833291	-0.1661757069586335	2.0610490817348412	-0.751966099137576	-0.16067856624200674	1.9971285588614414	-0.8353719199938375	-0.18047911303249575	2.054367787057743	-0.8140574871593302
73	2.433333333333333	-0.20478688140223134	1.8876582907634396	-0.6335961472037167	-0.2234172870882034	1.8855841731449947	-0.5630277274573693	-0.2480533319252633	1.7327165103484954	-0.5223265786021706	-0.22802098343244812	1.6673179316162594	-0.41383470697601415	-0.25023601419168967	1.625271325176408	-0.3208304139835321	-0.23463812541375667	1.7067218363258545	-0.34713868654003877	-0.23653454113114358	1.637456804633405	-0.4067105954995322	-0.183984741059018	1.8884400361253604	-0.7008583369231379	-0.1953423289626855	1.7293625976364697	-0.663518811448698	-0.19083429477149305	1.5706700985231263	-0.6296363419077782	-0.21282856373595704	1.5224137676277225	-0.6482631268528238	-0.1985896319736599	1.533974758453363	-0.6760019508530273	-0.18685174697550255	1.5603874359303684	-0.6155087997074382	-0.19459044580410156	2.0618952771885617	-0.6515944055866741	-0.216200879329231	2.1316802638596517	-0.6562464440749506	-0.21814140899135287	2.0574815464905813	-0.5533855129940736	-0.2491790867676098	2.0117209308254456	-0.41179420899843777	-0.25254103576931064	2.071758542754174	-0.4322633932562003	-0.16605190196173542	2.066986396009112	-0.7523320185069611	-0.16174743066682182	2.022682520541485	-0.8577927388639316	-0.17561006172766586	2.0855276774739777	-0.8247804698617743
